<?xml version="1.0" encoding="utf-8"?>
<!-- Generator: Adobe Illustrator 21.0.2, SVG Export Plug-In . SVG Version: 6.00 Build 0)  -->
<svg version="1.1" id="Layer_1" xmlns="http://www.w3.org/2000/svg" xmlns:xlink="http://www.w3.org/1999/xlink" x="0px" y="0px"
	 viewBox="0 0 416.2 87.2" style="enable-background:new 0 0 416.2 87.2;" xml:space="preserve">
<style type="text/css">
	.st0{clip-path:url(#SVGID_2_);}
	.st1{clip-path:url(#SVGID_4_);fill:#6D6E71;}
	.st2{clip-path:url(#SVGID_4_);fill:#414042;}
	.st3{clip-path:url(#SVGID_4_);fill:#A7A9AC;}
	.st4{clip-path:url(#SVGID_4_);fill:#BCBEC0;}
	.st5{clip-path:url(#SVGID_4_);fill:#FFFFFF;}
	.st6{clip-path:url(#SVGID_4_);fill:#808285;}
	.st7{clip-path:url(#SVGID_6_);}
	.st8{clip-path:url(#SVGID_8_);fill:#6D6E71;}
	.st9{clip-path:url(#SVGID_8_);fill:#414042;}
	.st10{clip-path:url(#SVGID_8_);fill:#A7A9AC;}
	.st11{clip-path:url(#SVGID_8_);fill:#BCBEC0;}
	.st12{clip-path:url(#SVGID_8_);fill:#FFFFFF;}
	.st13{clip-path:url(#SVGID_8_);fill:#808285;}
	.st14{fill:#1B8CCA;}
	.st15{fill:#EA1D49;}
	.st16{fill:#FFFFFF;}
	.st17{clip-path:url(#SVGID_10_);}
	.st18{clip-path:url(#SVGID_12_);fill:#6D6E71;}
	.st19{clip-path:url(#SVGID_12_);fill:#414042;}
	.st20{clip-path:url(#SVGID_12_);fill:#A7A9AC;}
	.st21{clip-path:url(#SVGID_12_);fill:#BCBEC0;}
	.st22{clip-path:url(#SVGID_12_);fill:#FFFFFF;}
	.st23{clip-path:url(#SVGID_12_);fill:#808285;}
</style>
<g id="Geeko_2_">
	<g>
		<defs>
			<rect id="SVGID_1_" x="16.4" y="12.7" width="41.3" height="59"/>
		</defs>
		<clipPath id="SVGID_2_">
			<use xlink:href="#SVGID_1_"  style="overflow:visible;"/>
		</clipPath>
		<g class="st0">
			<defs>
				<rect id="SVGID_3_" x="16.4" y="12.7" width="41.3" height="59"/>
			</defs>
			<clipPath id="SVGID_4_">
				<use xlink:href="#SVGID_3_"  style="overflow:visible;"/>
			</clipPath>
			<path class="st1" d="M49,27.4H25v-2.7c0-6.6,5.4-12,12-12c6.6,0,12,5.4,12,12V27.4z"/>
			<path class="st2" d="M49,27.4c0,0.9-5.4,1.7-12,1.7c-6.6,0-12-0.8-12-1.7c0-0.9,5.4-1.7,12-1.7C43.6,25.7,49,26.4,49,27.4"/>
			<path class="st2" d="M49,41.2c0,0.9-5.4,1.7-12,1.7c-6.6,0-12-0.8-12-1.7c0-0.9,5.4-1.7,12-1.7C43.6,39.6,49,40.3,49,41.2"/>
			<path class="st3" d="M22.5,57.5h-2.2c0-21,4.5-25.8,5-26.3l1.5,1.6C26.7,32.8,22.5,37.4,22.5,57.5"/>
			<path class="st3" d="M53.7,57.5h-2.2c0-20.1-4.3-24.6-4.3-24.7l1.5-1.6C49.2,31.7,53.7,36.4,53.7,57.5"/>
			<path class="st4" d="M17.5,57.9c-1.8,2.1-1.5,5.3,0.7,7l1.6-1.9c-1.1-0.9-1.2-2.4-0.3-3.5c0.9-1.1,2.4-1.2,3.5-0.3
				c1.1,0.9,1.2,2.4,0.3,3.5l2,1.6c1.8-2.1,1.5-5.3-0.7-7C22.4,55.4,19.3,55.7,17.5,57.9"/>
			<path class="st4" d="M56.5,58.4c1.8,2.1,1.5,5.3-0.7,7l-1.6-1.9c1.1-0.9,1.2-2.4,0.3-3.5c-0.9-1.1-2.4-1.2-3.5-0.3
				c-1.1,0.9-1.2,2.4-0.3,3.5l-2,1.6c-1.8-2.1-1.5-5.3,0.7-7C51.6,55.9,54.7,56.2,56.5,58.4"/>
			<path class="st1" d="M37,27.9c-6.6,0-12,0.8-12,1.7v11.7c0,0,3.5-1.1,12-1.1s12,1.1,12,1.1V29.6C49,28.6,43.6,27.9,37,27.9"/>
			<path class="st5" d="M36.1,18.8c0,0.7-0.6,1.3-1.3,1.3c-0.7,0-1.3-0.6-1.3-1.3c0-0.7,0.6-1.3,1.3-1.3
				C35.5,17.4,36.1,18,36.1,18.8"/>
			<path class="st5" d="M40.5,18.8c0,0.7-0.6,1.3-1.3,1.3c-0.7,0-1.3-0.6-1.3-1.3c0-0.7,0.6-1.3,1.3-1.3
				C39.9,17.4,40.5,18,40.5,18.8"/>
			<path class="st3" d="M33.7,41.4c-0.1-0.1-0.6-0.2-1.4-0.2c-0.7,0-1.3,0.1-1.4,0.2h0v30.1h2.8L33.7,41.4L33.7,41.4z"/>
			<path class="st3" d="M43,41.4c-0.1-0.1-0.6-0.2-1.4-0.2s-1.3,0.1-1.4,0.2h0v30.1H43L43,41.4L43,41.4z"/>
			<path class="st6" d="M36.4,71.7h-8.3c0-2,1.6-3.7,3.7-3.7h0.9C34.8,68,36.4,69.7,36.4,71.7"/>
			<path class="st6" d="M45.8,71.7h-8.3c0-2,1.7-3.7,3.7-3.7h0.9C44.1,68,45.8,69.7,45.8,71.7"/>
		</g>
	</g>
</g>
<rect x="280.1" y="21.6" class="st14" width="116.7" height="41.2"/>
<g>
	<path class="st15" d="M89.8,44.6H102C100.8,52.1,94.3,58,86.4,58c-8.7,0-15.8-7.1-15.8-15.8s7.1-15.8,15.8-15.8
		c6.1,0,11.5,3.4,14.2,8.9l4.3-2.1c-3.4-7.1-10.7-11.6-18.5-11.6c-11.4,0-20.6,9.2-20.6,20.6S75,62.8,86.4,62.8S107,53.5,107,42.2
		v-2.4H89.8V44.6z"/>
	<path class="st15" d="M130.2,21.6c-11.4,0-20.6,9.2-20.6,20.6s9.2,20.6,20.6,20.6c7.8,0,15.1-4.6,18.5-11.6l-4.3-2.1
		c-2.7,5.5-8.1,8.9-14.2,8.9c-7.9,0-14.4-5.8-15.6-13.4h36.2v-2.4C150.7,30.8,141.5,21.6,130.2,21.6z M114.6,39.8
		c1.2-7.6,7.7-13.4,15.6-13.4s14.4,5.8,15.6,13.4H114.6z"/>
	<path class="st15" d="M173,21.6c-11.4,0-20.6,9.2-20.6,20.6s9.2,20.6,20.6,20.6c7.8,0,15.1-4.6,18.5-11.6l-4.3-2.1
		c-2.7,5.5-8.1,8.9-14.2,8.9c-7.9,0-14.4-5.8-15.6-13.4h36.2v-2.4C193.6,30.8,184.3,21.6,173,21.6z M157.4,39.8
		c1.2-7.6,7.7-13.4,15.6-13.4c7.9,0,14.4,5.8,15.6,13.4H157.4z"/>
	<path class="st15" d="M251.7,21.6c-11.4,0-20.6,9.2-20.6,20.6s9.2,20.6,20.6,20.6c11.4,0,20.6-9.2,20.6-20.6S263.1,21.6,251.7,21.6
		z M251.7,58c-8.7,0-15.8-7.1-15.8-15.8s7.1-15.8,15.8-15.8c8.7,0,15.8,7.1,15.8,15.8S260.4,58,251.7,58z"/>
	<polygon class="st15" points="230,26.1 227.9,21.8 202,34.8 202,24 197.2,24 197.2,60.4 202,60.4 202,40.2 208.5,36.9 230,61.9 
		233.7,58.8 212.9,34.7 	"/>
</g>
<g>
	<g>
		<path class="st16" d="M299,52c-2.8,0-4.7-0.7-6-2c-1.2-1.4-1.8-7.4-1.8-18.1h4.2v11.1l0,1.2l0.1,1.4c0.1,1.2,0.6,2,1.5,2.5
			c0.7,0.4,3.4,0.6,8,0.6V52H299z"/>
		<path class="st16" d="M327,52l-1.8-4.8h-8.8l-1.7,4.8h-4.5l8.5-20.1h4.5l8.6,20.1H327z M320.8,35.9l-3,7.7h6L320.8,35.9z"/>
		<path class="st16" d="M354.7,50.8c-1.1,0.8-2.7,1.2-4.9,1.2h-11.1V31.9h10.3c0.8,0,1.4,0,1.6,0c0.1,0,0.3,0.1,0.7,0.1
			c0.1,0,0.2,0,0.4,0.1c0.9,0.1,1.7,0.4,2.6,0.8c0.9,0.4,1.5,1.1,1.8,2.2l0.3,1.2l0.1,1.7c0,0.7-0.3,1.4-0.8,2.2
			c-0.5,0.7-1.3,1.3-2.2,1.8c0.9,0.4,1.7,1,2.2,1.7c0.6,0.7,0.8,1.9,0.8,3.5C356.6,48.7,356,49.9,354.7,50.8z M351.2,36
			c-0.5-0.4-1.2-0.6-2.1-0.6H343v4.6h6.2c0.8,0,1.5-0.2,2-0.5c0.5-0.3,0.8-0.9,0.8-1.8C351.9,37,351.7,36.4,351.2,36z M351.2,44.3
			c-0.5-0.4-3.3-0.6-8.3-0.6v4.8h6.2c0.8,0,1.5-0.2,2-0.5c0.5-0.3,0.8-0.9,0.8-1.8C352,45.3,351.7,44.7,351.2,44.3z"/>
		<path class="st16" d="M381.5,50.7c-1.1,0.9-6.6,1.3-16.3,1.3v-3.6h10.6c1,0,1.8-0.1,2.2-0.4c0.7-0.4,1-0.8,1-1.4
			c0-0.6,0-1-0.1-1.3c0-0.2-0.1-0.4-0.2-0.5c-0.1-0.1-0.1-0.3-0.2-0.4c-0.5-0.5-1.9-0.7-4.1-0.7h-1l-1.4,0c-2.1,0-3.6-0.2-4.6-0.6
			c-2.1-0.8-3.2-2.4-3.2-4.9c0-2.4,0.7-4.2,2-5.2c1.2-0.9,2.9-1.3,5.1-1.3h11.1v3.6h-10.4c-1,0-1.8,0.2-2.4,0.6
			c-0.6,0.4-0.9,1.1-0.9,1.9c0,0.8,0.3,1.4,0.8,1.8c0.5,0.4,3,0.5,7.5,0.5l1.6,0l0.7,0.1l0.6,0.1c0.4,0.1,0.9,0.3,1.3,0.5l0.5,0.4
			l0.6,0.5c0.4,0.4,0.8,1,1,1.8c0.2,0.8,0.3,1.9,0.3,3.3C383.5,48.5,382.9,49.7,381.5,50.7z"/>
	</g>
</g>
</svg>
