<?xml version="1.0" encoding="utf-8"?>
<!-- Generator: Adobe Illustrator 21.0.2, SVG Export Plug-In . SVG Version: 6.00 Build 0)  -->
<svg version="1.1" id="Layer_1" xmlns="http://www.w3.org/2000/svg" xmlns:xlink="http://www.w3.org/1999/xlink" x="0px" y="0px"
	 viewBox="0 0 360 124.7" style="enable-background:new 0 0 360 124.7;" xml:space="preserve">
<style type="text/css">
	.st0{clip-path:url(#SVGID_2_);}
	.st1{clip-path:url(#SVGID_4_);fill:#6D6E71;}
	.st2{clip-path:url(#SVGID_4_);fill:#414042;}
	.st3{clip-path:url(#SVGID_4_);fill:#A7A9AC;}
	.st4{clip-path:url(#SVGID_4_);fill:#BCBEC0;}
	.st5{clip-path:url(#SVGID_4_);fill:#FFFFFF;}
	.st6{clip-path:url(#SVGID_4_);fill:#808285;}
	.st7{clip-path:url(#SVGID_6_);}
	.st8{clip-path:url(#SVGID_8_);fill:#6D6E71;}
	.st9{clip-path:url(#SVGID_8_);fill:#414042;}
	.st10{clip-path:url(#SVGID_8_);fill:#A7A9AC;}
	.st11{clip-path:url(#SVGID_8_);fill:#BCBEC0;}
	.st12{clip-path:url(#SVGID_8_);fill:#FFFFFF;}
	.st13{clip-path:url(#SVGID_8_);fill:#808285;}
	.st14{fill:#1B8CCA;}
	.st15{fill:#EA1D49;}
	.st16{fill:#FFFFFF;}
	.st17{clip-path:url(#SVGID_10_);}
	.st18{clip-path:url(#SVGID_12_);fill:#6D6E71;}
	.st19{clip-path:url(#SVGID_12_);fill:#414042;}
	.st20{clip-path:url(#SVGID_12_);fill:#A7A9AC;}
	.st21{clip-path:url(#SVGID_12_);fill:#BCBEC0;}
	.st22{clip-path:url(#SVGID_12_);fill:#FFFFFF;}
	.st23{clip-path:url(#SVGID_12_);fill:#808285;}
</style>
<g>
	<g id="Geeko">
		<g>
			<defs>
				<rect id="SVGID_9_" x="25.5" y="14.5" width="64.4" height="92.2"/>
			</defs>
			<clipPath id="SVGID_2_">
				<use xlink:href="#SVGID_9_"  style="overflow:visible;"/>
			</clipPath>
			<g class="st0">
				<defs>
					<rect id="SVGID_11_" x="25.5" y="14.5" width="64.4" height="92.2"/>
				</defs>
				<clipPath id="SVGID_4_">
					<use xlink:href="#SVGID_11_"  style="overflow:visible;"/>
				</clipPath>
				<path class="st1" d="M76.4,37.5H39v-4.3c0-10.3,8.4-18.7,18.7-18.7c10.3,0,18.7,8.4,18.7,18.7V37.5z"/>
				<path class="st2" d="M76.4,37.5c0,1.5-8.4,2.6-18.7,2.6C47.4,40.1,39,39,39,37.5c0-1.5,8.4-2.6,18.7-2.6
					C68,34.9,76.4,36,76.4,37.5"/>
				<path class="st2" d="M76.4,59.2c0,1.5-8.4,2.6-18.7,2.6c-10.3,0-18.7-1.2-18.7-2.6s8.4-2.6,18.7-2.6
					C68,56.6,76.4,57.7,76.4,59.2"/>
				<path class="st3" d="M35,84.5h-3.5c0-32.9,7-40.3,7.8-41l2.4,2.5C41.7,46.1,35,53.1,35,84.5"/>
				<path class="st3" d="M83.8,84.5h-3.5c0-31.4-6.7-38.5-6.7-38.5l2.4-2.5C76.8,44.2,83.8,51.7,83.8,84.5"/>
				<path class="st4" d="M27.3,85.1c-2.7,3.3-2.3,8.3,1.1,11l2.5-3c-1.7-1.4-1.9-3.8-0.5-5.5c1.4-1.7,3.8-1.9,5.5-0.5
					c1.7,1.4,1.9,3.8,0.5,5.5l3,2.5c2.7-3.3,2.3-8.3-1.1-11C34.9,81.3,30,81.8,27.3,85.1"/>
				<path class="st4" d="M88.1,85.9c2.7,3.3,2.3,8.3-1.1,11l-2.5-3c1.7-1.4,1.9-3.8,0.5-5.5c-1.4-1.6-3.8-1.9-5.5-0.5
					c-1.7,1.4-1.9,3.8-0.5,5.4l-3,2.5c-2.7-3.3-2.3-8.3,1.1-11C80.5,82.1,85.4,82.6,88.1,85.9"/>
				<path class="st1" d="M57.7,38.3C47.4,38.3,39,39.5,39,41v18.2c0,0,5.5-1.8,18.7-1.8s18.7,1.8,18.7,1.8V41
					C76.4,39.5,68,38.3,57.7,38.3"/>
				<path class="st5" d="M56.3,24.1c0,1.2-0.9,2.1-2.1,2.1c-1.2,0-2.1-0.9-2.1-2.1c0-1.2,0.9-2.1,2.1-2.1C55.4,22,56.3,23,56.3,24.1
					"/>
				<path class="st5" d="M63.2,24.1c0,1.2-0.9,2.1-2.1,2.1c-1.2,0-2.1-0.9-2.1-2.1C59,23,60,22,61.1,22C62.3,22,63.2,23,63.2,24.1"
					/>
				<path class="st3" d="M52.5,59.5c-0.1-0.2-1-0.3-2.1-0.3s-2,0.1-2.1,0.3h0v47h4.3L52.5,59.5L52.5,59.5z"/>
				<path class="st3" d="M67.1,59.5c-0.1-0.2-1-0.3-2.1-0.3c-1.1,0-2,0.1-2.1,0.3h0v47h4.3L67.1,59.5L67.1,59.5z"/>
				<path class="st6" d="M56.8,106.7H43.9c0-3.2,2.6-5.8,5.8-5.8h1.4C54.3,101,56.8,103.6,56.8,106.7"/>
				<path class="st6" d="M71.4,106.7H58.5c0-3.2,2.6-5.8,5.8-5.8h1.4C68.9,101,71.4,103.6,71.4,106.7"/>
			</g>
		</g>
	</g>
	<rect x="145.2" y="80.9" class="st14" width="148.8" height="22.1"/>
	<g>
		<path class="st15" d="M128.8,53.7h14C141.5,62.3,134,69,124.9,69c-10,0-18.1-8.1-18.1-18.1s8.1-18.1,18.1-18.1
			c7,0,13.2,3.9,16.3,10.2l4.9-2.4c-3.9-8.1-12.2-13.3-21.2-13.3c-13,0-23.6,10.6-23.6,23.6s10.6,23.6,23.6,23.6
			s23.6-10.6,23.6-23.6v-2.7h-19.7V53.7z"/>
		<path class="st15" d="M175,27.3c-13,0-23.6,10.6-23.6,23.6S162,74.5,175,74.5c9,0,17.3-5.2,21.2-13.3l-4.9-2.4
			C188.3,65.1,182,69,175,69c-9,0-16.5-6.7-17.9-15.3h41.4v-2.7C198.6,37.9,188,27.3,175,27.3z M157.2,48.2
			c1.3-8.7,8.8-15.3,17.9-15.3c9,0,16.5,6.7,17.9,15.3H157.2z"/>
		<path class="st15" d="M224,27.3c-13,0-23.6,10.6-23.6,23.6S211,74.5,224,74.5c9,0,17.3-5.2,21.2-13.3l-4.9-2.4
			C237.3,65.1,231,69,224,69c-9,0-16.5-6.7-17.9-15.3h41.4v-2.7C247.6,37.9,237,27.3,224,27.3z M206.2,48.2
			c1.3-8.7,8.8-15.3,17.9-15.3c9,0,16.5,6.7,17.9,15.3H206.2z"/>
		<path class="st15" d="M314.2,27.3c-13,0-23.6,10.6-23.6,23.6s10.6,23.6,23.6,23.6c13,0,23.6-10.6,23.6-23.6S327.2,27.3,314.2,27.3
			z M314.2,69c-10,0-18.1-8.1-18.1-18.1s8.1-18.1,18.1-18.1s18.1,8.1,18.1,18.1S324.2,69,314.2,69z"/>
		<polygon class="st15" points="289.4,32.5 286.9,27.6 257.3,42.5 257.3,30.1 251.8,30.1 251.8,71.7 257.3,71.7 257.3,48.6 
			264.7,44.9 289.4,73.5 293.5,69.9 269.8,42.3 		"/>
	</g>
	<g>
		<path class="st16" d="M195.7,97.2c-1.6,0-2.8-0.4-3.5-1.2c-0.7-0.8-1.1-4.3-1.1-10.6h2.5v6.5l0,0.7l0,0.8c0.1,0.7,0.4,1.2,0.9,1.4
			c0.4,0.2,2,0.4,4.7,0.4v1.9H195.7z"/>
		<path class="st16" d="M212,97.2l-1.1-2.8h-5.1l-1,2.8h-2.6l4.9-11.8h2.6l5,11.8H212z M208.4,87.8l-1.7,4.5h3.5L208.4,87.8z"/>
		<path class="st16" d="M228.2,96.5c-0.6,0.5-1.6,0.7-2.9,0.7h-6.5V85.5h6c0.5,0,0.8,0,0.9,0c0.1,0,0.2,0,0.4,0.1c0,0,0.1,0,0.3,0
			c0.5,0.1,1,0.2,1.5,0.5c0.5,0.2,0.9,0.6,1,1.3l0.1,0.7l0.1,1c0,0.4-0.2,0.8-0.5,1.3c-0.3,0.4-0.7,0.8-1.3,1.1c0.5,0.3,1,0.6,1.3,1
			c0.3,0.4,0.5,1.1,0.5,2C229.3,95.3,228.9,96,228.2,96.5z M226.2,87.9c-0.3-0.2-0.7-0.3-1.2-0.3h-3.6v2.7h3.6
			c0.5,0,0.9-0.1,1.2-0.3c0.3-0.2,0.4-0.5,0.4-1C226.6,88.5,226.4,88.1,226.2,87.9z M226.2,92.7c-0.3-0.2-1.9-0.3-4.8-0.3v2.8h3.6
			c0.5,0,0.9-0.1,1.2-0.3c0.3-0.2,0.5-0.6,0.5-1.1C226.6,93.3,226.5,92.9,226.2,92.7z"/>
		<path class="st16" d="M243.9,96.5c-0.7,0.5-3.8,0.8-9.5,0.8v-2.1h6.2c0.6,0,1-0.1,1.3-0.2c0.4-0.2,0.6-0.5,0.6-0.8
			c0-0.4,0-0.6,0-0.7c0-0.1,0-0.2-0.1-0.3c0-0.1-0.1-0.2-0.1-0.2c-0.3-0.3-1.1-0.4-2.4-0.4h-0.6l-0.8,0c-1.2,0-2.1-0.1-2.7-0.3
			c-1.2-0.5-1.8-1.4-1.8-2.8c0-1.4,0.4-2.4,1.1-3c0.7-0.5,1.7-0.8,3-0.8h6.5v2.1h-6.1c-0.6,0-1.1,0.1-1.4,0.3
			c-0.3,0.3-0.5,0.6-0.5,1.1s0.1,0.8,0.4,1.1c0.3,0.2,1.8,0.3,4.4,0.3l0.9,0l0.4,0l0.3,0.1c0.3,0.1,0.5,0.2,0.8,0.3L244,91l0.4,0.3
			c0.3,0.2,0.4,0.6,0.6,1c0.1,0.4,0.2,1.1,0.2,1.9C245,95.2,244.6,95.9,243.9,96.5z"/>
	</g>
</g>
</svg>
