<?xml version="1.0" encoding="utf-8"?>
<!-- Generator: Adobe Illustrator 21.0.2, SVG Export Plug-In . SVG Version: 6.00 Build 0)  -->
<svg version="1.1" id="Layer_1" xmlns="http://www.w3.org/2000/svg" xmlns:xlink="http://www.w3.org/1999/xlink" x="0px" y="0px"
	 viewBox="0 0 360 243" style="enable-background:new 0 0 360 243;" xml:space="preserve">
<style type="text/css">
	.st0{clip-path:url(#SVGID_2_);}
	.st1{clip-path:url(#SVGID_4_);fill:#6D6E71;}
	.st2{clip-path:url(#SVGID_4_);fill:#414042;}
	.st3{clip-path:url(#SVGID_4_);fill:#A7A9AC;}
	.st4{clip-path:url(#SVGID_4_);fill:#BCBEC0;}
	.st5{clip-path:url(#SVGID_4_);fill:#FFFFFF;}
	.st6{clip-path:url(#SVGID_4_);fill:#808285;}
	.st7{clip-path:url(#SVGID_6_);}
	.st8{clip-path:url(#SVGID_8_);fill:#6D6E71;}
	.st9{clip-path:url(#SVGID_8_);fill:#414042;}
	.st10{clip-path:url(#SVGID_8_);fill:#A7A9AC;}
	.st11{clip-path:url(#SVGID_8_);fill:#BCBEC0;}
	.st12{clip-path:url(#SVGID_8_);fill:#FFFFFF;}
	.st13{clip-path:url(#SVGID_8_);fill:#808285;}
	.st14{fill:#1B8CCA;}
	.st15{fill:#EA1D49;}
	.st16{fill:#FFFFFF;}
	.st17{clip-path:url(#SVGID_10_);}
	.st18{clip-path:url(#SVGID_12_);fill:#6D6E71;}
	.st19{clip-path:url(#SVGID_12_);fill:#414042;}
	.st20{clip-path:url(#SVGID_12_);fill:#A7A9AC;}
	.st21{clip-path:url(#SVGID_12_);fill:#BCBEC0;}
	.st22{clip-path:url(#SVGID_12_);fill:#FFFFFF;}
	.st23{clip-path:url(#SVGID_12_);fill:#808285;}
</style>
<g id="Geeko_1_">
	<g>
		<defs>
			<rect id="SVGID_5_" x="148.4" y="20.7" width="62.6" height="89.5"/>
		</defs>
		<clipPath id="SVGID_2_">
			<use xlink:href="#SVGID_5_"  style="overflow:visible;"/>
		</clipPath>
		<g class="st0">
			<defs>
				<rect id="SVGID_7_" x="148.4" y="20.7" width="62.6" height="89.5"/>
			</defs>
			<clipPath id="SVGID_4_">
				<use xlink:href="#SVGID_7_"  style="overflow:visible;"/>
			</clipPath>
			<path class="st1" d="M197.8,43h-36.3v-4.1c0-10,8.1-18.1,18.1-18.1c10,0,18.1,8.1,18.1,18.1V43z"/>
			<path class="st2" d="M197.8,43c0,1.4-8.1,2.6-18.1,2.6c-10,0-18.1-1.1-18.1-2.6c0-1.4,8.1-2.6,18.1-2.6
				C189.7,40.4,197.8,41.6,197.8,43"/>
			<path class="st2" d="M197.8,64.1c0,1.4-8.1,2.6-18.1,2.6c-10,0-18.1-1.1-18.1-2.6c0-1.4,8.1-2.6,18.1-2.6
				C189.7,61.5,197.8,62.6,197.8,64.1"/>
			<path class="st3" d="M157.6,88.6h-3.4c0-31.9,6.8-39.1,7.6-39.8l2.3,2.4C164.1,51.3,157.6,58.2,157.6,88.6"/>
			<path class="st3" d="M205,88.6h-3.4c0-30.5-6.5-37.3-6.5-37.4l2.3-2.4C198.2,49.5,205,56.7,205,88.6"/>
			<path class="st4" d="M150.1,89.3c-2.7,3.2-2.2,8,1,10.7l2.4-3c-1.6-1.3-1.8-3.7-0.5-5.3c1.3-1.6,3.7-1.8,5.3-0.5
				c1.6,1.3,1.8,3.7,0.5,5.3l3,2.4c2.7-3.2,2.2-8-1-10.7C157.5,85.6,152.8,86,150.1,89.3"/>
			<path class="st4" d="M209.2,90c2.7,3.2,2.2,8-1,10.7l-2.4-3c1.6-1.3,1.8-3.7,0.5-5.3c-1.3-1.6-3.7-1.8-5.3-0.5
				c-1.6,1.3-1.8,3.7-0.5,5.3l-3,2.4c-2.7-3.2-2.2-8,1-10.7C201.7,86.3,206.5,86.8,209.2,90"/>
			<path class="st1" d="M179.6,43.8c-10,0-18.1,1.1-18.1,2.6v17.7c0,0,5.3-1.7,18.1-1.7s18.1,1.7,18.1,1.7V46.4
				C197.8,44.9,189.7,43.8,179.6,43.8"/>
			<path class="st5" d="M178.3,30c0,1.1-0.9,2-2,2c-1.1,0-2-0.9-2-2c0-1.1,0.9-2,2-2C177.4,28,178.3,28.9,178.3,30"/>
			<path class="st5" d="M185,30c0,1.1-0.9,2-2,2s-2-0.9-2-2c0-1.1,0.9-2,2-2S185,28.9,185,30"/>
			<path class="st3" d="M174.6,64.4c-0.1-0.2-1-0.3-2.1-0.3s-2,0.1-2.1,0.3h0V110h4.2L174.6,64.4L174.6,64.4z"/>
			<path class="st3" d="M188.8,64.4c-0.1-0.2-1-0.3-2.1-0.3s-2,0.1-2.1,0.3h0V110h4.2L188.8,64.4L188.8,64.4z"/>
			<path class="st6" d="M178.8,110.2h-12.5c0-3.1,2.5-5.6,5.6-5.6h1.3C176.3,104.6,178.8,107.1,178.8,110.2"/>
			<path class="st6" d="M193,110.2h-12.5c0-3.1,2.5-5.6,5.6-5.6h1.3C190.5,104.6,193,107.1,193,110.2"/>
		</g>
	</g>
</g>
<g>
	<rect x="86.1" y="194.7" class="st14" width="186.7" height="27.8"/>
	<g>
		<path class="st15" d="M57.1,156.8h18.8c-1.8,11.7-11.9,20.7-24.1,20.7c-13.4,0-24.4-10.9-24.4-24.4c0-13.4,10.9-24.4,24.4-24.4
			c9.4,0,17.8,5.3,21.9,13.7l6.7-3.2c-5.3-10.9-16.5-17.9-28.6-17.9c-17.5,0-31.8,14.3-31.8,31.8s14.3,31.8,31.8,31.8
			s31.8-14.3,31.8-31.8v-3.7H57.1V156.8z"/>
		<path class="st15" d="M119.4,121.4c-17.5,0-31.8,14.3-31.8,31.8s14.3,31.8,31.8,31.8c12.1,0,23.3-7,28.6-17.9l-6.7-3.2
			c-4.1,8.5-12.5,13.7-21.9,13.7c-12.2,0-22.3-9-24.1-20.7h55.9v-3.7C151.2,135.6,136.9,121.4,119.4,121.4z M95.3,149.4
			c1.8-11.7,11.9-20.7,24.1-20.7s22.3,9,24.1,20.7H95.3z"/>
		<path class="st15" d="M185.5,121.4c-17.5,0-31.8,14.3-31.8,31.8s14.3,31.8,31.8,31.8c12.1,0,23.3-7,28.6-17.9l-6.7-3.2
			c-4.1,8.5-12.5,13.7-21.9,13.7c-12.2,0-22.3-9-24.1-20.7h55.9v-3.7C217.3,135.6,203,121.4,185.5,121.4z M161.4,149.4
			c1.8-11.7,11.9-20.7,24.1-20.7c12.2,0,22.3,9,24.1,20.7H161.4z"/>
		<path class="st15" d="M307.1,121.4c-17.5,0-31.8,14.3-31.8,31.8s14.3,31.8,31.8,31.8s31.8-14.3,31.8-31.8S324.6,121.4,307.1,121.4
			z M307.1,177.5c-13.4,0-24.4-10.9-24.4-24.4c0-13.4,10.9-24.4,24.4-24.4s24.4,10.9,24.4,24.4C331.4,166.6,320.5,177.5,307.1,177.5
			z"/>
		<polygon class="st15" points="273.6,128.4 270.3,121.7 230.3,141.7 230.3,125.1 222.9,125.1 222.9,181.2 230.3,181.2 230.3,150 
			240.3,145 273.5,183.6 279.2,178.8 247.1,141.6 		"/>
	</g>
	<g>
		<path class="st16" d="M142.7,216.5c-2.2,0-3.7-0.5-4.7-1.6c-1-1.1-1.4-5.8-1.4-14.3h3.3v8.7l0,1l0,1.1c0.1,0.9,0.5,1.6,1.2,1.9
			c0.6,0.3,2.7,0.5,6.3,0.5v2.6H142.7z"/>
		<path class="st16" d="M169.1,216.5l-1.5-3.8h-6.9l-1.4,3.8h-3.5l6.7-15.8h3.5l6.8,15.8H169.1z M164.2,203.9l-2.3,6.1h4.7
			L164.2,203.9z"/>
		<path class="st16" d="M195.3,215.6c-0.9,0.6-2.1,0.9-3.9,0.9h-8.7v-15.8h8.1c0.7,0,1.1,0,1.2,0c0.1,0,0.3,0,0.5,0.1
			c0.1,0,0.2,0,0.4,0.1c0.7,0.1,1.4,0.3,2,0.6c0.7,0.3,1.2,0.8,1.4,1.7l0.2,1l0.1,1.3c0,0.5-0.2,1.1-0.6,1.7c-0.4,0.6-1,1-1.7,1.5
			c0.7,0.3,1.3,0.8,1.7,1.4c0.4,0.6,0.7,1.5,0.7,2.7C196.8,213.9,196.3,214.9,195.3,215.6z M192.6,204c-0.4-0.3-1-0.4-1.6-0.4h-4.8
			v3.7h4.8c0.7,0,1.2-0.1,1.6-0.4c0.4-0.3,0.6-0.7,0.6-1.4C193.1,204.8,192.9,204.3,192.6,204z M192.6,210.5
			c-0.4-0.3-2.6-0.5-6.5-0.5v3.7h4.9c0.6,0,1.2-0.1,1.6-0.4s0.6-0.7,0.6-1.4C193.2,211.2,193,210.8,192.6,210.5z"/>
		<path class="st16" d="M220.9,215.5c-0.9,0.7-5.2,1-12.9,1v-2.8h8.3c0.8,0,1.4-0.1,1.8-0.3c0.5-0.3,0.8-0.6,0.8-1.1
			c0-0.5,0-0.8-0.1-1c0-0.2-0.1-0.3-0.1-0.4c0-0.1-0.1-0.2-0.2-0.3c-0.4-0.4-1.5-0.6-3.2-0.6h-0.7l-1.1,0c-1.7,0-2.9-0.1-3.6-0.4
			c-1.7-0.6-2.5-1.9-2.5-3.8c0-1.9,0.5-3.3,1.5-4.1c0.9-0.7,2.2-1,4-1h8.8v2.8h-8.2c-0.8,0-1.4,0.2-1.9,0.5
			c-0.5,0.3-0.7,0.8-0.7,1.5s0.2,1.1,0.6,1.4c0.4,0.3,2.4,0.4,5.9,0.4l1.3,0l0.5,0.1l0.5,0.1c0.4,0.1,0.7,0.2,1,0.4l0.4,0.3l0.5,0.4
			c0.4,0.3,0.6,0.8,0.7,1.4c0.1,0.6,0.2,1.5,0.2,2.6C222.4,213.8,221.9,214.8,220.9,215.5z"/>
	</g>
</g>
</svg>
