<?xml version="1.0" encoding="utf-8"?>
<!-- Generator: Adobe Illustrator 21.0.2, SVG Export Plug-In . SVG Version: 6.00 Build 0)  -->
<svg version="1.1" id="Layer_1" xmlns="http://www.w3.org/2000/svg" xmlns:xlink="http://www.w3.org/1999/xlink" x="0px" y="0px"
	 viewBox="0 0 792 182" style="enable-background:new 0 0 792 182;" xml:space="preserve">
<style type="text/css">
	.st0{fill:none;stroke:#000000;stroke-width:6.1911;stroke-linecap:round;stroke-miterlimit:10;}
</style>
<g id="AAyXbh.tif">
	<g>
		<path class="st0" d="M450,82.3c0,4.7,0,9.4,0,14.1c-0.1,0-0.2,0-0.3,0c-4.3,0.7-8.7,1.5-13,2.3c-0.3,0.1-0.6,0.5-0.7,0.8
			c-1,4.4-2.8,8.4-5.1,12.2c-0.3,0.5-0.2,0.9,0.1,1.3c0.7,0.9,1.4,1.9,2,2.8c1.9,2.6,3.8,5.3,5.6,7.8c-3.3,3.3-6.6,6.6-9.8,9.8
			c-3.5-2.4-7.1-4.9-10.6-7.5c-0.6-0.4-0.9-0.4-1.5-0.1c-3.7,2.3-7.8,4-12,5c-0.6,0.1-0.9,0.5-1,1.1c-0.4,2.2-0.7,4.4-1.1,6.6
			c-0.4,2.1-0.8,4.2-1.1,6.3c-4.7,0-9.3,0-13.9,0c-0.7-4.3-1.5-8.6-2.1-12.9c-0.1-0.7-0.4-1-1.1-1.2c-4.1-1-8-2.6-11.5-4.8
			c-0.8-0.5-1.3-0.4-2.1,0.1c-3.5,2.5-7,4.9-10.3,7.2c-3.3-3.3-6.6-6.6-9.9-9.9c2.4-3.4,4.9-6.9,7.5-10.5c0.3-0.5,0.5-0.9,0.2-1.4
			c-2.3-3.8-4-7.8-5.1-12.1c-0.1-0.3-0.6-0.8-0.9-0.8c-1.8-0.4-3.6-0.6-5.3-1c-2.6-0.5-5.2-0.9-7.7-1.4c0-4.7,0-9.3,0-13.9
			c4.2-0.7,8.2-1.4,12.3-2c0.9-0.1,1.6-0.4,1.8-1.5c0.9-4,2.6-7.8,4.7-11.3c0.5-0.7,0.4-1.2-0.1-1.9c-2.5-3.5-4.9-7-7.3-10.4
			c3.3-3.3,6.6-6.6,9.9-9.9c3.4,2.4,6.9,4.9,10.4,7.4c0.7,0.5,1.1,0.5,1.8,0.1c3.6-2.2,7.4-3.8,11.4-4.8c1-0.2,1.2-0.7,1.4-1.6
			c0.3-2,0.7-4.1,1-6.1c0.3-2.2,0.6-4.3,0.9-6.5c4.7,0,9.4,0,14.1,0c0,0.2,0,0.4,0,0.6c0.7,4.2,1.4,8.4,2.2,12.6
			c0.1,0.3,0.5,0.8,0.9,0.8c4.3,1.1,8.4,2.7,12.1,5.1c0.5,0.3,0.9,0.3,1.3-0.1c0.9-0.7,1.9-1.4,2.8-2c2.6-1.9,5.3-3.8,7.8-5.6
			c3.3,3.3,6.5,6.5,9.8,9.8c-0.2,0.3-0.5,0.7-0.7,1.1c-2.2,3.2-4.4,6.3-6.7,9.5c-0.5,0.7-0.5,1.1-0.1,1.8c2.2,3.6,3.9,7.5,4.8,11.6
			c0.2,0.8,0.6,1.1,1.3,1.2c2.2,0.3,4.3,0.7,6.5,1C445.8,81.7,447.9,82,450,82.3z"/>
	</g>
	<circle class="st0" cx="394.6" cy="89.4" r="21.7"/>
</g>
<g>
	<polyline class="st0" points="220,73.9 196.3,73.9 196.3,133.8 289.5,133.8 289.5,73.9 266.3,73.9 	"/>
	<line class="st0" x1="242.9" y1="133.8" x2="242.9" y2="150.8"/>
	<line class="st0" x1="220" y1="151" x2="265.8" y2="151"/>
	<g>
		<path class="st0" d="M229.7,110.4V60.2c0-2.6-2.1-4.7-4.7-4.7h-9.2"/>
		<path class="st0" d="M256.3,110.4V60.2c0-2.6,2.1-4.7,4.7-4.7h9.2"/>
		<line class="st0" x1="242.9" y1="122.5" x2="242.9" y2="42"/>
		<circle class="st0" cx="206.3" cy="55.4" r="8.8"/>
		<circle class="st0" cx="242.9" cy="32.5" r="8.8"/>
		<circle class="st0" cx="279.6" cy="55.4" r="8.8"/>
	</g>
</g>
<g>
	<ellipse class="st0" cx="99.3" cy="89.4" rx="22.4" ry="52.1"/>
	<ellipse transform="matrix(0.5 -0.866 0.866 0.5 -27.8119 130.6833)" class="st0" cx="99.3" cy="89.4" rx="22.4" ry="52.1"/>
	<ellipse transform="matrix(0.866 -0.5 0.5 0.866 -31.4142 61.6156)" class="st0" cx="99.3" cy="89.4" rx="52.1" ry="22.4"/>
	<circle class="st0" cx="99.3" cy="89.4" r="9.9"/>
</g>
<g>
	<circle class="st0" cx="550.9" cy="63.8" r="9.6"/>
	<circle class="st0" cx="519.3" cy="67" r="9.6"/>
	<circle class="st0" cx="511.9" cy="100.3" r="9.6"/>
	<path class="st0" d="M587,142.3l3.1-52.4c0.2-2.8,2.7-4.7,5.4-4.2l7.1,1.4c2.7,0.5,4.3,3.2,3.5,5.9L590.7,143
		C590,145.1,586.9,144.5,587,142.3z"/>
	<path class="st0" d="M600.1,80.1c0,0-10.7-2.5-7.3-14.6c3.1-11,11.3-6.8,14-22.2c0.2-1.3,2-1.5,2.5-0.2c2.3,6.4,5.7,18.1,2.5,26.9
		C607.4,82.8,600.1,80.1,600.1,80.1z"/>
	<path class="st0" d="M537.3,130.5c-1.2-5.6,2.5-11,8.1-12c21.3-3.8,37.2-19,37.2-37.1c0-21-21.4-38-47.7-38s-47.7,17-47.7,38
		c0,0-0.7,44.8,44.6,64.3c4,1.7,8.3-1.8,7.4-6.1L537.3,130.5z"/>
</g>
<g>
	<circle class="st0" cx="701.5" cy="47.8" r="14.1"/>
	<line class="st0" x1="701.5" y1="19.8" x2="701.5" y2="33.7"/>
	<path class="st0" d="M691.6,60.8l-11.9,32.4h-20v9.5h16.5l-11.1,30.4l0.2,9.3c0,1.9,2.5,2.7,3.7,1.2l7.6-10l13.3-31h23.3l13.9,33.1
		l7.2,8.1c1.3,1.4,3.7,0.5,3.6-1.5l-0.5-9.2l-10.9-30.6H740v-9.5h-17.2l-11.6-32.4 M693.8,93.2l7.7-18l7.5,18H693.8z"/>
</g>
</svg>
